<svg preserveAspectRatio="none" width="100%" height="100%" overflow="visible" style="display: block;" viewBox="0 0 48 48" fill="none" xmlns="http://www.w3.org/2000/svg">
<g id="Avatar">
<path d="M0 24C0 10.7452 10.7452 0 24 0V0C37.2548 0 48 10.7452 48 24V24C48 37.2548 37.2548 48 24 48V48C10.7452 48 0 37.2548 0 24V24Z" fill="var(--fill-0, #3663CA)"/>
<path id="Union" d="M20.1255 26.1997C20.1255 27.2877 19.8105 28.1357 19.1812 28.7437C18.5518 29.341 17.7088 29.6401 16.6528 29.6401C15.5864 29.6401 14.7223 29.33 14.061 28.7114C13.4106 28.0928 13.0854 27.2288 13.0854 26.1196H15.3257C15.3364 26.5996 15.4483 26.9731 15.6616 27.2397C15.8856 27.5063 16.2056 27.6401 16.6216 27.6401C17.0268 27.6401 17.336 27.5113 17.5493 27.2554C17.7625 26.9994 17.8696 26.6475 17.8696 26.1997V18.3599H20.1255V26.1997ZM28.8345 26.6636L32.3862 18.3599H34.9146V29.5278H32.6743V22.2642L29.6821 29.5278H27.9858L24.978 22.2642V29.5278H22.7378V18.3599H25.2827L28.8345 26.6636Z" fill="var(--fill-0, #FEFEFF)"/>
</g>
</svg>
