<svg preserveAspectRatio="none" width="100%" height="100%" overflow="visible" style="display: block;" viewBox="0 0 48 48" fill="none" xmlns="http://www.w3.org/2000/svg">
<g id="Avatar">
<path d="M0 24C0 10.7452 10.7452 0 24 0V0C37.2548 0 48 10.7452 48 24V24C48 37.2548 37.2548 48 24 48V48C10.7452 48 0 37.2548 0 24V24Z" fill="var(--fill-0, #3663CA)"/>
<path d="M0 24C0 10.7452 10.7452 0 24 0V0C37.2548 0 48 10.7452 48 24V24C48 37.2548 37.2548 48 24 48V48C10.7452 48 0 37.2548 0 24V24Z" fill="var(--fill-1, white)" fill-opacity="0.1"/>
<path id="Union" d="M16.0815 18.416C17.2547 18.416 18.2842 18.645 19.1694 19.1035C20.0654 19.5622 20.7539 20.2189 21.2339 21.0723C21.7244 21.9148 21.9702 22.8959 21.9702 24.0156C21.9702 25.1356 21.7245 26.1173 21.2339 26.96C20.7539 27.792 20.0654 28.4368 19.1694 28.8955C18.2841 29.3542 17.2549 29.584 16.0815 29.584H12.1772V18.416H16.0815ZM29.7427 26.7197L33.2944 18.416H35.8228V29.584H33.5825V22.3203L30.5903 29.584H28.894L25.8862 22.3203V29.584H23.646V18.416H26.1909L29.7427 26.7197ZM14.4175 27.6797H16.0015C17.1748 27.6797 18.0822 27.3597 18.7222 26.7197C19.3619 26.0797 19.6821 25.1781 19.6821 24.0156C19.6821 22.8532 19.362 21.9465 18.7222 21.2959C18.0822 20.6346 17.1748 20.3037 16.0015 20.3037H14.4175V27.6797Z" fill="var(--fill-0, #FEFEFF)"/>
</g>
</svg>
