<svg preserveAspectRatio="none" width="100%" height="100%" overflow="visible" style="display: block;" viewBox="0 0 26.875 26.875" fill="none" xmlns="http://www.w3.org/2000/svg">
<g id="SVGRepo_iconCarrier">
<path id="Vector" d="M15.9375 7.27532C14.4666 6.42447 12.7589 5.9375 10.9375 5.9375C5.41465 5.9375 0.9375 10.4146 0.9375 15.9375C0.9375 17.5371 1.31311 19.0491 1.98096 20.39C2.15844 20.7463 2.21751 21.1536 2.11461 21.5381L1.51901 23.7641C1.26045 24.7305 2.14451 25.6145 3.11085 25.356L5.33689 24.7604C5.72144 24.6575 6.12871 24.7166 6.48502 24.894C7.82586 25.5619 9.33781 25.9375 10.9375 25.9375C16.4604 25.9375 20.9375 21.4604 20.9375 15.9375C20.9375 14.1161 20.4505 12.4084 19.5996 10.9375" stroke="var(--stroke-0, black)" stroke-width="1.875" stroke-linecap="round"/>
<path id="Vector_2" d="M20.9375 16.5647C21.0206 16.5301 21.103 16.4941 21.1846 16.4569C21.6372 16.2501 22.1451 16.1728 22.6257 16.3014L23.2209 16.4606C24.4287 16.7837 25.5337 15.6787 25.2106 14.4709L25.0514 13.8757C24.9228 13.3951 25.0001 12.8872 25.2069 12.4346C25.676 11.4075 25.9375 10.2655 25.9375 9.0625C25.9375 7.4699 25.4793 5.98431 24.6875 4.73039M10.3125 5.932C11.5382 2.99874 14.4346 0.9375 17.8125 0.9375C19.4232 0.9375 20.9246 1.40625 22.1875 2.21477" stroke="var(--stroke-0, black)" stroke-width="1.875" stroke-linecap="round"/>
<path id="Vector_3" d="M6.58535 15.9375H6.5966M10.9488 15.9375H10.96M15.3125 15.9375H15.3238" stroke="var(--stroke-0, black)" stroke-width="2.5" stroke-linecap="round" stroke-linejoin="round"/>
</g>
</svg>
