<svg preserveAspectRatio="none" width="100%" height="100%" overflow="visible" style="display: block;" viewBox="0 0 30 30" fill="none" xmlns="http://www.w3.org/2000/svg">
<g id="document-add-svgrepo-com 2">
<path id="Vector" d="M16.3738 21.0489L16.875 20.8817L18.4245 20.3652C18.9085 20.204 19.1504 20.1232 19.3781 20.0147C19.6466 19.8867 19.9005 19.7299 20.1351 19.547C20.334 19.3919 20.5144 19.2115 20.8751 18.8507L26.2009 13.525L26.7801 12.9456C27.74 11.9858 27.74 10.4297 26.7801 9.46986C25.8204 8.51005 24.2641 8.51005 23.3044 9.46986L22.725 10.0492L17.3993 15.3749C17.0385 15.7356 16.8581 15.916 16.703 16.1149C16.5201 16.3495 16.3633 16.6034 16.2353 16.8719C16.1268 17.0996 16.046 17.3415 15.8848 17.8255L15.3683 19.375L15.2011 19.8762L15.034 20.3776C14.9546 20.6157 15.0166 20.8784 15.1941 21.0559C15.3716 21.2334 15.6343 21.2954 15.8724 21.216L16.3738 21.0489ZM22.725 10.0492C22.725 10.0492 22.7975 11.2802 23.8836 12.3664C24.9699 13.4525 26.2009 13.525 26.2009 13.525M15.2011 19.8762L16.3738 21.0489" stroke="var(--stroke-0, #262627)" stroke-width="1.875"/>
<path id="Vector_2" d="M9.99969 16.25H13.1247" stroke="var(--stroke-0, #262627)" stroke-width="1.875" stroke-linecap="round"/>
<path id="Vector_3" d="M9.99969 11.25H18.1247" stroke="var(--stroke-0, #262627)" stroke-width="1.875" stroke-linecap="round"/>
<path id="Vector_4" d="M9.99969 21.25H11.8747" stroke="var(--stroke-0, #262627)" stroke-width="1.875" stroke-linecap="round"/>
<path id="Vector_5" d="M3.75 17.5V12.5C3.75 7.78595 3.75 5.42894 5.21446 3.96446C6.67894 2.5 9.03595 2.5 13.75 2.5H16.25C20.964 2.5 23.3211 2.5 24.7855 3.96446M26.25 17.5C26.25 22.214 26.25 24.5711 24.7855 26.0355M26.2391 20C26.1943 23.0995 25.9644 24.8566 24.7855 26.0355C23.3211 27.5 20.964 27.5 16.25 27.5H13.75C9.03595 27.5 6.67894 27.5 5.21446 26.0355" stroke="var(--stroke-0, #262627)" stroke-width="1.875" stroke-linecap="round"/>
</g>
</svg>
