<svg preserveAspectRatio="none" width="100%" height="100%" overflow="visible" style="display: block;" viewBox="0 0 30 30" fill="none" xmlns="http://www.w3.org/2000/svg">
<g id="SVG" clip-path="url(#clip0_0_429)">
<g id="Vector">
<path d="M23.7646 0.302734C23.9746 0.0756836 24.3262 0.0610352 24.5532 0.270996C24.7803 0.480957 24.7949 0.83252 24.585 1.05957L20.0146 6.00586L20.0073 6.01563C19.4482 6.69189 19.0649 7.31689 18.894 7.88818C18.7427 8.39355 18.7646 8.85254 18.9893 9.25293C19.1089 9.46777 19.0698 9.73145 18.9111 9.90479V9.90479L16.7407 12.2534C16.5283 12.0215 16.3599 11.8335 16.2476 11.7114C16.1963 11.6431 16.1377 11.5771 16.0767 11.5137L16.0718 11.5186C16.0425 11.4868 16.0107 11.4575 15.979 11.4282L17.8345 9.41895C17.6172 8.83789 17.6196 8.22022 17.8198 7.56348C18.0347 6.85059 18.4912 6.09131 19.1479 5.30029C19.1626 5.28076 19.1748 5.26123 19.1919 5.24414L23.7598 0.297852L23.7646 0.302734V0.302734V0.302734M13.9478 13.5522C13.7427 13.3228 13.7622 12.9688 13.9917 12.7637C14.2212 12.5586 14.5752 12.5781 14.7803 12.8076C17.0776 15.3809 24.1797 22.9956 26.1475 25.8423C28.7427 29.5166 24.7241 30.6738 23.3911 29.3359C20.061 26.1157 12.9907 17.9053 9.88281 14.4238C8.76465 14.8975 7.67822 14.9707 6.58691 14.6582C5.4126 14.3237 4.2627 13.54 3.0957 12.3364L3.08105 12.3218C2.19238 11.3843 1.49658 10.459 0.993652 9.54346C0.478516 8.60107 0.163574 7.66846 0.0512695 6.74316C-0.0683594 5.74707 0.0244141 4.81934 0.292969 3.99658C0.60791 3.02979 1.16699 2.21191 1.89941 1.604C2.63672 0.993652 3.54248 0.598145 4.55322 0.476074C5.39307 0.375977 6.30859 0.461426 7.25586 0.771484C8.56689 1.19873 10.0952 2.26074 11.3623 3.62305C12.2974 4.62646 13.0981 5.80078 13.5742 7.00928C14.0698 8.26904 14.2212 9.57275 13.8232 10.7935C13.5889 11.5161 13.1641 12.1948 12.5049 12.8076C12.2778 13.0176 11.9263 13.0029 11.7163 12.7783C11.5063 12.5513 11.521 12.1997 11.7456 11.9897C12.2559 11.5137 12.583 10.9937 12.7612 10.4443C13.0688 9.49951 12.9395 8.45215 12.5342 7.42188C12.1094 6.34277 11.3892 5.28809 10.5444 4.38232C9.40186 3.15674 8.04688 2.20703 6.9043 1.8335C6.12061 1.57959 5.37109 1.50635 4.68506 1.58936C3.88916 1.68701 3.17627 1.99219 2.60742 2.46826C2.03613 2.94434 1.59912 3.58643 1.34766 4.35059C1.13037 5.01709 1.05469 5.78369 1.15479 6.61133C1.25 7.39258 1.521 8.19092 1.96533 9.00635C2.43164 9.84375 3.07129 10.6909 3.89404 11.5576L3.89893 11.5649C4.9292 12.627 5.91797 13.3105 6.89697 13.5889C7.82227 13.8525 8.76465 13.75 9.74854 13.2593C9.97314 13.1299 10.2637 13.1738 10.4419 13.374C13.4741 16.77 20.8496 25.3174 24.1162 28.4839C25.5347 29.0625 26.3208 28.3496 25.6421 27.0923C24.585 25.1294 15.5029 15.3003 13.9478 13.5522V13.5522V13.5522V13.5522M11.0034 18.4619L3.88428 26.1646C3.86963 26.1792 3.85742 26.1938 3.84033 26.2085C2.80029 27.3315 4.64111 28.9673 5.78369 27.8735L12.6978 20.3906L13.4399 21.2329L6.57959 28.6572V28.6572C6.56494 28.6743 6.55029 28.689 6.53076 28.7061C6.12061 29.0503 5.70801 29.2749 5.29053 29.3677C4.86084 29.4653 4.43848 29.4214 4.0332 29.231C3.96484 29.2041 3.90137 29.1699 3.84521 29.1187L2.86133 28.208V28.208C2.84668 28.1934 2.83203 28.1812 2.81738 28.1641C2.43652 27.7246 2.25586 27.2559 2.30469 26.7603C2.35107 26.2915 2.6001 25.835 3.07129 25.3955L10.2588 17.6172L11.0034 18.4619V18.4619V18.4619M18.4644 14.1504L18.8867 13.6938C19.0967 13.4668 19.4507 13.4521 19.6753 13.6621C19.8999 13.8720 19.917 14.2236 19.707 14.4507L19.2188 14.978L18.4644 14.1504V14.1504V14.1504M25.5005 1.93604C25.7104 1.70898 26.062 1.69434 26.2891 1.9043C26.5161 2.11426 26.5308 2.46582 26.3208 2.69287L22.3145 7.03125C22.1045 7.2583 21.7529 7.27295 21.5259 7.06299C21.2988 6.85303 21.2842 6.50147 21.4941 6.27441L25.5005 1.93604V1.93604V1.93604V1.93604M27.2339 3.54004C27.4438 3.31299 27.7954 3.29834 28.0225 3.5083C28.2495 3.71826 28.2642 4.06982 28.0542 4.29688L24.0503 8.63281C23.8403 8.85986 23.4888 8.87451 23.2617 8.66455C23.0347 8.45459 23.02 8.10303 23.23 7.87598L27.2339 3.54004V3.54004V3.54004V3.54004M29.0308 5.20752C29.2407 4.98047 29.5923 4.96582 29.8193 5.17578C30.0464 5.38574 30.061 5.73975 29.8511 5.96436L25.2808 10.9131C25.2637 10.9302 25.2466 10.9448 25.2295 10.9619C24.1895 11.9629 23.1958 12.5415 22.2461 12.7051C21.2158 12.8833 20.271 12.5903 19.4043 11.8335C19.1724 11.6309 19.1504 11.2769 19.3506 11.0474C19.5532 10.8154 19.9072 10.7935 20.1367 10.9937C20.7349 11.5161 21.3745 11.7212 22.0508 11.6016C22.7783 11.4771 23.5791 10.9961 24.4531 10.1538L24.458 10.1489L29.0259 5.20508L29.0308 5.20752V5.20752V5.20752" fill="var(--fill-0, #3663CA)"/>
<path d="M23.7646 0.302734C23.9746 0.0756836 24.3262 0.0610352 24.5532 0.270996C24.7803 0.480957 24.7949 0.83252 24.585 1.05957L20.0146 6.00586L20.0073 6.01563C19.4482 6.69189 19.0649 7.31689 18.894 7.88818C18.7427 8.39355 18.7646 8.85254 18.9893 9.25293C19.1089 9.46777 19.0698 9.73145 18.9111 9.90479V9.90479L16.7407 12.2534C16.5283 12.0215 16.3599 11.8335 16.2476 11.7114C16.1963 11.6431 16.1377 11.5771 16.0767 11.5137L16.0718 11.5186C16.0425 11.4868 16.0107 11.4575 15.979 11.4282L17.8345 9.41895C17.6172 8.83789 17.6196 8.22022 17.8198 7.56348C18.0347 6.85059 18.4912 6.09131 19.1479 5.30029C19.1626 5.28076 19.1748 5.26123 19.1919 5.24414L23.7598 0.297852L23.7646 0.302734V0.302734V0.302734M13.9478 13.5522C13.7427 13.3228 13.7622 12.9688 13.9917 12.7637C14.2212 12.5586 14.5752 12.5781 14.7803 12.8076C17.0776 15.3809 24.1797 22.9956 26.1475 25.8423C28.7427 29.5166 24.7241 30.6738 23.3911 29.3359C20.061 26.1157 12.9907 17.9053 9.88281 14.4238C8.76465 14.8975 7.67822 14.9707 6.58691 14.6582C5.4126 14.3237 4.2627 13.54 3.0957 12.3364L3.08105 12.3218C2.19238 11.3843 1.49658 10.459 0.993652 9.54346C0.478516 8.60107 0.163574 7.66846 0.0512695 6.74316C-0.0683594 5.74707 0.0244141 4.81934 0.292969 3.99658C0.60791 3.02979 1.16699 2.21191 1.89941 1.604C2.63672 0.993652 3.54248 0.598145 4.55322 0.476074C5.39307 0.375977 6.30859 0.461426 7.25586 0.771484C8.56689 1.19873 10.0952 2.26074 11.3623 3.62305C12.2974 4.62646 13.0981 5.80078 13.5742 7.00928C14.0698 8.26904 14.2212 9.57275 13.8232 10.7935C13.5889 11.5161 13.1641 12.1948 12.5049 12.8076C12.2778 13.0176 11.9263 13.0029 11.7163 12.7783C11.5063 12.5513 11.521 12.1997 11.7456 11.9897C12.2559 11.5137 12.583 10.9937 12.7612 10.4443C13.0688 9.49951 12.9395 8.45215 12.5342 7.42188C12.1094 6.34277 11.3892 5.28809 10.5444 4.38232C9.40186 3.15674 8.04688 2.20703 6.9043 1.8335C6.12061 1.57959 5.37109 1.50635 4.68506 1.58936C3.88916 1.68701 3.17627 1.99219 2.60742 2.46826C2.03613 2.94434 1.59912 3.58643 1.34766 4.35059C1.13037 5.01709 1.05469 5.78369 1.15479 6.61133C1.25 7.39258 1.521 8.19092 1.96533 9.00635C2.43164 9.84375 3.07129 10.6909 3.89404 11.5576L3.89893 11.5649C4.9292 12.627 5.91797 13.3105 6.89697 13.5889C7.82227 13.8525 8.76465 13.75 9.74854 13.2593C9.97314 13.1299 10.2637 13.1738 10.4419 13.374C13.4741 16.77 20.8496 25.3174 24.1162 28.4839C25.5347 29.0625 26.3208 28.3496 25.6421 27.0923C24.585 25.1294 15.5029 15.3003 13.9478 13.5522V13.5522V13.5522V13.5522M11.0034 18.4619L3.88428 26.1646C3.86963 26.1792 3.85742 26.1938 3.84033 26.2085C2.80029 27.3315 4.64111 28.9673 5.78369 27.8735L12.6978 20.3906L13.4399 21.2329L6.57959 28.6572V28.6572C6.56494 28.6743 6.55029 28.689 6.53076 28.7061C6.12061 29.0503 5.70801 29.2749 5.29053 29.3677C4.86084 29.4653 4.43848 29.4214 4.0332 29.231C3.96484 29.2041 3.90137 29.1699 3.84521 29.1187L2.86133 28.208V28.208C2.84668 28.1934 2.83203 28.1812 2.81738 28.1641C2.43652 27.7246 2.25586 27.2559 2.30469 26.7603C2.35107 26.2915 2.6001 25.835 3.07129 25.3955L10.2588 17.6172L11.0034 18.4619V18.4619V18.4619M18.4644 14.1504L18.8867 13.6938C19.0967 13.4668 19.4507 13.4521 19.6753 13.6621C19.8999 13.8720 19.917 14.2236 19.707 14.4507L19.2188 14.978L18.4644 14.1504V14.1504V14.1504M25.5005 1.93604C25.7104 1.70898 26.062 1.69434 26.2891 1.9043C26.5161 2.11426 26.5308 2.46582 26.3208 2.69287L22.3145 7.03125C22.1045 7.2583 21.7529 7.27295 21.5259 7.06299C21.2988 6.85303 21.2842 6.50147 21.4941 6.27441L25.5005 1.93604V1.93604V1.93604V1.93604M27.2339 3.54004C27.4438 3.31299 27.7954 3.29834 28.0225 3.5083C28.2495 3.71826 28.2642 4.06982 28.0542 4.29688L24.0503 8.63281C23.8403 8.85986 23.4888 8.87451 23.2617 8.66455C23.0347 8.45459 23.02 8.10303 23.23 7.87598L27.2339 3.54004V3.54004V3.54004V3.54004M29.0308 5.20752C29.2407 4.98047 29.5923 4.96582 29.8193 5.17578C30.0464 5.38574 30.061 5.73975 29.8511 5.96436L25.2808 10.9131C25.2637 10.9302 25.2466 10.9448 25.2295 10.9619C24.1895 11.9629 23.1958 12.5415 22.2461 12.7051C21.2158 12.8833 20.271 12.5903 19.4043 11.8335C19.1724 11.6309 19.1504 11.2769 19.3506 11.0474C19.5532 10.8154 19.9072 10.7935 20.1367 10.9937C20.7349 11.5161 21.3745 11.7212 22.0508 11.6016C22.7783 11.4771 23.5791 10.9961 24.4531 10.1538L24.458 10.1489L29.0259 5.20508L29.0308 5.20752V5.20752V5.20752" stroke="var(--stroke-0, #3663CA)" stroke-width="0.3"/>
</g>
</g>
<defs>
<clipPath id="clip0_0_429">
<rect width="30" height="30" fill="white"/>
</clipPath>
</defs>
</svg>
