<svg preserveAspectRatio="none" width="100%" height="100%" overflow="visible" style="display: block;" viewBox="0 0 25.4454 26.875" fill="none" xmlns="http://www.w3.org/2000/svg">
<g id="SVGRepo_iconCarrier">
<path id="Vector" d="M8.97278 13.4375C8.97278 15.5072 10.6531 17.1875 12.7228 17.1875C14.7925 17.1875 16.4728 15.5072 16.4728 13.4375C16.4728 11.3678 14.7925 9.6875 12.7228 9.6875C10.6531 9.6875 8.97278 11.3678 8.97278 13.4375V13.4375" stroke="var(--stroke-0, black)" stroke-width="1.875"/>
<path id="Vector_2" d="M2.2993 11.7365C2.88999 12.1076 3.27005 12.7399 3.27005 13.4374C3.27004 14.135 2.88998 14.7673 2.2993 15.1384C1.89735 15.3909 1.63838 15.5928 1.45413 15.8329C1.05049 16.359 0.872354 17.0238 0.958904 17.6811C1.0238 18.1741 1.31502 18.6785 1.89744 19.6874C2.47988 20.6961 2.77109 21.2005 3.1656 21.5033C3.69163 21.9069 4.35645 22.085 5.01383 21.9985C5.31387 21.959 5.61813 21.8356 6.03773 21.6139C6.65458 21.2879 7.39225 21.2749 7.99647 21.6238C8.60062 21.9726 8.95812 22.6179 8.98418 23.315C9.00193 23.7894 9.04725 24.1146 9.16308 24.3943C9.41682 25.0068 9.9035 25.4935 10.516 25.7473C10.9755 25.9375 11.5579 25.9375 12.7228 25.9375C13.8877 25.9375 14.47 25.9375 14.9295 25.7473C15.542 25.4935 16.0288 25.0068 16.2825 24.3943C16.3983 24.1146 16.4437 23.7894 16.4614 23.3151C16.4874 22.6179 16.8449 21.9726 17.4492 21.6238C18.0533 21.275 18.7909 21.288 19.4077 21.614C19.8274 21.8358 20.1317 21.9591 20.4317 21.9986C21.089 22.0853 21.7539 21.907 22.2799 21.5034C22.6744 21.2007 22.9657 20.6963 23.5482 19.6875C23.8074 19.2384 24.009 18.8893 24.1585 18.5965M23.1462 15.1385C22.5555 14.7674 22.1755 14.1351 22.1754 13.4376C22.1754 12.74 22.5555 12.1076 23.1462 11.7365C23.5482 11.484 23.807 11.2821 23.9913 11.042C24.3949 10.516 24.573 9.85115 24.4865 9.19378C24.4217 8.70075 24.1304 8.19635 23.5479 7.18756C22.9655 6.17876 22.6743 5.67438 22.2798 5.37165C21.7538 4.96801 21.0889 4.78988 20.4315 4.87641C20.1315 4.91593 19.8273 5.03925 19.4077 5.26104C18.7908 5.58705 18.0532 5.60005 17.449 5.2512C16.8449 4.90238 16.4874 4.25713 16.4614 3.56004C16.4437 3.08565 16.3983 2.76044 16.2825 2.48079C16.0288 1.86823 15.542 1.38154 14.9295 1.1278C14.47 0.937501 13.8877 0.937501 12.7228 0.937501C11.5579 0.937501 10.9755 0.937501 10.516 1.1278C9.9035 1.38154 9.41682 1.86823 9.16308 2.48079C9.04725 2.76041 9.00193 3.0856 8.98418 3.55993C8.9581 4.25708 8.60059 4.90239 7.99642 5.2512C7.39224 5.60003 6.65463 5.58699 6.03784 5.261C5.61819 5.0392 5.3139 4.91586 5.01384 4.87635C4.35647 4.78981 3.69164 4.96795 3.16562 5.37159C2.7711 5.67431 2.47989 6.17871 1.89745 7.1875C1.63817 7.63661 1.43659 7.98574 1.287 8.27841" stroke="var(--stroke-0, black)" stroke-width="1.875" stroke-linecap="round"/>
</g>
</svg>
