<svg preserveAspectRatio="none" width="100%" height="100%" overflow="visible" style="display: block;" viewBox="0 0 21.0978 23.2667" fill="none" xmlns="http://www.w3.org/2000/svg">
<g id="SVGRepo_iconCarrier">
<path id="Vector" d="M7.41529 1.53032C8.36503 1.06203 9.42752 0.8 10.5489 0.8C14.5869 0.8 17.8604 4.19758 17.8604 8.38872V9.15203C17.8604 10.0681 18.1217 10.9636 18.6113 11.7259L19.8109 13.5936C20.9068 15.2997 20.0703 17.6186 18.1643 18.1581C13.1785 19.5695 7.91935 19.5695 2.93344 18.1581C1.02752 17.6186 0.190936 15.2997 1.28677 13.5936L2.4865 11.7259C2.97608 10.9636 3.23732 10.0681 3.23732 9.15203V8.38872C3.23732 7.2248 3.48978 6.12208 3.94097 5.13633" stroke="var(--stroke-0, #2C3761)" stroke-width="1.6" stroke-linecap="round"/>
<path id="Vector_2" d="M5.67388 19.2167C6.3835 21.1101 8.29821 22.4667 10.5489 22.4667C10.8138 22.4667 11.074 22.4479 11.328 22.4116M15.4239 19.2167C15.1345 19.9887 14.645 20.6714 14.0139 21.2092" stroke="var(--stroke-0, #2C3761)" stroke-width="1.6" stroke-linecap="round"/>
</g>
</svg>
