<svg preserveAspectRatio="none" width="100%" height="100%" overflow="visible" style="display: block;" viewBox="0 0 24.8076 26.3782" fill="none" xmlns="http://www.w3.org/2000/svg">
<g id="SVGRepo_iconCarrier">
<g id="Vector">
<path d="" fill="var(--fill-0, #DDB54A)"/>
<path d="M1.19085 18.7271C1.41209 22.0457 1.52271 23.7051 2.60397 24.7166C3.68522 25.7282 5.34824 25.7282 8.67424 25.7282H9.64095C12.9669 25.7282 14.6299 25.7282 15.7112 24.7166C16.7924 23.7051 16.9031 22.0457 17.1243 18.7271L17.5521 12.3108C17.7187 9.81176 17.8019 8.56225 17.0609 7.77021C16.3199 6.97818 15.0677 6.97818 12.5632 6.97818H5.75201C3.24746 6.97818 1.99519 6.97818 1.25419 7.77021C0.513187 8.56225 0.596487 9.81176 0.763087 12.3108L0.835337 13.3944" stroke="var(--stroke-0, #DDB54A)" stroke-width="1.3" stroke-linecap="round"/>
</g>
<g id="Vector_2">
<path d="" fill="var(--fill-0, #DDB54A)"/>
<path d="M17.9076 19.4782H19.1576C21.9189 19.4782 24.1576 17.2396 24.1576 14.4782C24.1576 11.7168 21.9189 9.47818 19.1576 9.47818H17.9076" stroke="var(--stroke-0, #DDB54A)" stroke-width="1.3"/>
</g>
<path id="Vector_3" d="M9.15757 21.6657C9.67532 21.6657 10.0951 21.2459 10.0951 20.7282C10.0951 20.2104 9.67532 19.7907 9.15757 19.7907V21.6657V21.6657M13.5326 19.7907C13.0148 19.7907 12.5951 20.2104 12.5951 20.7282C12.5951 21.2459 13.0148 21.6657 13.5326 21.6657V19.7907V19.7907M9.15757 19.7907H1.65757V21.6657H9.15757V19.7907V19.7907M16.6576 19.7907H13.5326V21.6657H16.6576V19.7907V19.7907" fill="var(--fill-0, #DDB54A)"/>
<g id="Vector_4">
<path d="" fill="var(--fill-0, #DDB54A)"/>
<path d="M4.22109 4.55493L4.73436 3.83535C5.01782 3.43794 4.92546 2.88596 4.52805 2.60249C4.13064 2.31901 4.03826 1.76705 4.32174 1.36964L4.83501 0.650051M14.2211 4.55493L14.7343 3.83535C15.0178 3.43794 14.9254 2.88596 14.5281 2.60249C14.1306 2.31901 14.0383 1.76705 14.3217 1.36964L14.8349 0.650051M9.22107 4.55493L9.73432 3.83535C10.0178 3.43794 9.92545 2.88596 9.52807 2.60249C9.13064 2.31901 9.03826 1.76705 9.3217 1.36964L9.83495 0.650051" stroke="var(--stroke-0, #DDB54A)" stroke-width="1.3" stroke-linecap="round"/>
</g>
</g>
</svg>
