<svg preserveAspectRatio="none" width="100%" height="100%" overflow="visible" style="display: block;" viewBox="0 0 15 13.1975" fill="none" xmlns="http://www.w3.org/2000/svg">
<g id="Container">
<path id="Vector" d="M6.39513 1.37322L0.923149 10.5094C0.810345 10.7047 0.750651 10.9262 0.750005 11.1518C0.749359 11.3774 0.807784 11.5992 0.919468 11.7952C1.03115 11.9912 1.1922 12.1545 1.3866 12.269C1.581 12.3834 1.80197 12.4449 2.02754 12.4475H12.9729C13.1983 12.4449 13.4192 12.3833 13.6135 12.2689C13.8078 12.1545 13.9688 11.9913 14.0804 11.7954C14.1921 11.5995 14.2506 11.3778 14.25 11.1523C14.2494 10.9268 14.1899 10.7054 14.0772 10.5101L8.60526 1.37255C8.49013 1.18252 8.32795 1.0254 8.13437 0.916345C7.9408 0.807293 7.72237 0.75 7.50019 0.75C7.27802 0.75 7.05959 0.807293 6.86602 0.916345C6.67244 1.0254 6.51026 1.1832 6.39513 1.37322Z" stroke="var(--stroke-0, #824417)" stroke-width="1.5" stroke-linecap="round" stroke-linejoin="round"/>
<g id="Warning Icon">
<path id="Vector (Stroke)" fill-rule="evenodd" clip-rule="evenodd" d="M6.87109 4.68359C6.87109 4.32116 7.16345 4.02734 7.52408 4.02734H7.53061C7.89124 4.02734 8.18359 4.32116 8.18359 4.68359C8.18359 5.04603 7.89124 5.33984 7.53061 5.33984H7.52408C7.16345 5.33984 6.87109 5.04603 6.87109 4.68359Z" fill="var(--fill-0, #824417)"/>
<path id="Vector 1" d="M7.5 6.75V9.75" stroke="var(--stroke-0, #824417)" stroke-width="1.3125" stroke-linecap="round"/>
</g>
</g>
</svg>
