<svg preserveAspectRatio="none" width="100%" height="100%" overflow="visible" style="display: block;" viewBox="0 0 30 30" fill="none" xmlns="http://www.w3.org/2000/svg">
<g id="diploma-verified-svgrepo-com 1">
<path id="Vector" d="M8.75 22.4979C6.03122 22.4827 4.55883 22.3621 3.59835 21.4016C2.5 20.3032 2.5 18.5355 2.5 15V9.99999C2.5 6.46446 2.5 4.69669 3.59835 3.59834C4.6967 2.49999 6.46447 2.49999 10 2.49999H20C23.5355 2.49999 25.3033 2.49999 26.4016 3.59834C27.014 4.21071 27.285 5.03113 27.4049 6.24999M20.625 22.4979L21.6496 22.4946C24.1151 22.4685 25.4894 22.314 26.4016 21.4016C27.5 20.3032 27.5 18.5355 27.5 15V11.25" stroke="var(--stroke-0, #2C3761)" stroke-width="1.875" stroke-linecap="round"/>
<path id="Vector_2" d="M11.25 7.5H18.75" stroke="var(--stroke-0, #2C3761)" stroke-width="1.875" stroke-linecap="round"/>
<path id="Vector_3" d="M8.75 11.875H11.25M21.25 11.875H15.625" stroke="var(--stroke-0, #2C3761)" stroke-width="1.875" stroke-linecap="round"/>
<path id="Vector_4" d="M13.6134 17.4317C14.4125 16.7509 15.5878 16.7509 16.3868 17.4317C16.7291 17.7236 17.1549 17.9 17.6034 17.9357C18.6499 18.0192 19.4809 18.8502 19.5644 19.8967C19.6003 20.3452 19.7765 20.771 20.0684 21.1134C20.7493 21.9125 20.7493 23.0877 20.0684 23.8867C19.7765 24.2291 19.6003 24.6549 19.5644 25.1034C19.4809 26.1499 18.6499 26.9809 17.6034 27.0644C17.1549 27.1002 16.7291 27.2765 16.3868 27.5684C15.5878 28.2492 14.4125 28.2492 13.6134 27.5684C13.271 27.2765 12.8453 27.1002 12.3968 27.0644C11.3503 26.9809 10.5192 26.1499 10.4357 25.1034C10.3999 24.6549 10.2236 24.2291 9.93179 23.8867C9.25085 23.0877 9.25085 21.9125 9.93179 21.1134C10.2236 20.771 10.3999 20.3452 10.4357 19.8967C10.5193 18.8502 11.3503 18.0192 12.3968 17.9357C12.8453 17.9 13.271 17.7236 13.6134 17.4317Z" stroke="var(--stroke-0, #2C3761)" stroke-width="1.875"/>
<path id="Vector_5" d="M13.125 22.75L14.1964 23.75L16.875 21.25" stroke="var(--stroke-0, #2C3761)" stroke-width="1.875" stroke-linecap="round" stroke-linejoin="round"/>
</g>
</svg>
