<svg preserveAspectRatio="none" width="100%" height="100%" overflow="visible" style="display: block;" viewBox="0 0 30 30" fill="none" xmlns="http://www.w3.org/2000/svg">
<g id="calendar-svgrepo-com 1">
<path id="Vector" d="M17.5002 27.5H12.5002C7.7861 27.5 5.42909 27.5 3.96462 26.0355C2.50015 24.5711 2.50015 22.214 2.50015 17.5V15C2.50015 10.286 2.50015 7.92894 3.96462 6.46446C5.42909 5 7.7861 5 12.5002 5H17.5002C22.2142 5 24.5713 5 26.0356 6.46446C27.5001 7.92894 27.5002 10.286 27.5002 15V17.5C27.5002 22.214 27.5001 24.5711 26.0356 26.0355C25.2192 26.852 24.1253 27.2133 22.5002 27.3731" stroke="var(--stroke-0, #1C274C)" stroke-width="1.875" stroke-linecap="round"/>
<path id="Vector_2" d="M8.75031 5V3.125" stroke="var(--stroke-0, #1C274C)" stroke-width="1.875" stroke-linecap="round"/>
<path id="Vector_3" d="M21.2502 5V3.125" stroke="var(--stroke-0, #1C274C)" stroke-width="1.875" stroke-linecap="round"/>
<path id="Vector_4" d="M26.8752 11.25H20.7814H13.4377M2.50015 11.25H7.3439" stroke="var(--stroke-0, #1C274C)" stroke-width="1.875" stroke-linecap="round"/>
<path id="Vector_5" d="M22.5003 21.25C22.5003 21.9404 21.9407 22.5 21.2503 22.5C20.5599 22.5 20.0003 21.9404 20.0003 21.25C20.0003 20.5596 20.5599 20 21.2503 20C21.9407 20 22.5003 20.5596 22.5003 21.25Z" fill="var(--fill-0, #1C274C)"/>
<path id="Vector_6" d="M22.5003 16.25C22.5003 16.9404 21.9407 17.5 21.2503 17.5C20.5599 17.5 20.0003 16.9404 20.0003 16.25C20.0003 15.5596 20.5599 15 21.2503 15C21.9407 15 22.5003 15.5596 22.5003 16.25Z" fill="var(--fill-0, #1C274C)"/>
<path id="Vector_7" d="M16.2502 21.25C16.2502 21.9404 15.6905 22.5 15.0002 22.5C14.3098 22.5 13.7502 21.9404 13.7502 21.25C13.7502 20.5596 14.3098 20 15.0002 20C15.6905 20 16.2502 20.5596 16.2502 21.25Z" fill="var(--fill-0, #1C274C)"/>
<path id="Vector_8" d="M16.2502 16.25C16.2502 16.9404 15.6905 17.5 15.0002 17.5C14.3098 17.5 13.7502 16.9404 13.7502 16.25C13.7502 15.5596 14.3098 15 15.0002 15C15.6905 15 16.2502 15.5596 16.2502 16.25Z" fill="var(--fill-0, #1C274C)"/>
<path id="Vector_9" d="M10 21.25C10 21.9404 9.44035 22.5 8.75 22.5C8.05965 22.5 7.5 21.9404 7.5 21.25C7.5 20.5596 8.05965 20 8.75 20C9.44035 20 10 20.5596 10 21.25Z" fill="var(--fill-0, #1C274C)"/>
<path id="Vector_10" d="M10 16.25C10 16.9404 9.44035 17.5 8.75 17.5C8.05965 17.5 7.5 16.9404 7.5 16.25C7.5 15.5596 8.05965 15 8.75 15C9.44035 15 10 15.5596 10 16.25Z" fill="var(--fill-0, #1C274C)"/>
</g>
</svg>
