<svg preserveAspectRatio="none" width="100%" height="100%" overflow="visible" style="display: block;" viewBox="0 0 22 22" fill="none" xmlns="http://www.w3.org/2000/svg">
<g id="Group">
<path id="Vector" d="M11 21C16.5228 21 21 16.5228 21 11C21 5.47715 16.5228 1 11 1C5.47715 1 1 5.47715 1 11C1 16.5228 5.47715 21 11 21Z" stroke="var(--stroke-0, #3663CA)" stroke-width="2" stroke-linecap="round" stroke-linejoin="round"/>
<path id="Vector_2" d="M8.08984 7.9996C8.32494 7.33126 8.78899 6.7677 9.39984 6.40873C10.0106 6.04975 10.7287 5.91853 11.427 6.03831C12.1253 6.15808 12.7586 6.52112 13.2149 7.06312C13.6711 7.60513 13.9209 8.29112 13.9198 8.99959C13.9198 10.9996 10.9198 11.9996 10.9198 11.9996" stroke="var(--stroke-0, #3663CA)" stroke-width="2" stroke-linecap="round" stroke-linejoin="round"/>
<path id="Vector_3" d="M11 16H11.01" stroke="var(--stroke-0, #3663CA)" stroke-width="2" stroke-linecap="round" stroke-linejoin="round"/>
</g>
</svg>
