<svg preserveAspectRatio="none" width="100%" height="100%" overflow="visible" style="display: block;" viewBox="0 0 26.456 26.875" fill="none" xmlns="http://www.w3.org/2000/svg">
<g id="SVGRepo_iconCarrier">
<path id="Vector" d="M9.6875 19.0208C10.7505 19.8087 12.0432 20.2708 13.4375 20.2708C14.8317 20.2708 16.1245 19.8087 17.1875 19.0208" stroke="var(--stroke-0, #3663CA)" stroke-width="1.875" stroke-linecap="round"/>
<path id="Vector_2" d="M25.4824 14.6349L25.134 17.0565C24.5246 21.2909 24.22 23.408 22.7512 24.6728C21.2824 25.9375 19.1282 25.9375 14.8201 25.9375H12.0549C7.74671 25.9375 5.59261 25.9375 4.12379 24.6728C2.65495 23.408 2.35031 21.2909 1.74105 17.0565L1.39259 14.6349C0.918287 11.3385 0.681137 9.69036 1.35671 8.28119C2.03229 6.872 3.47024 6.01543 6.34614 4.30226L8.07719 3.27109C10.6888 1.71536 11.9946 0.9375 13.4375 0.9375C14.8804 0.9375 16.1862 1.71536 18.7977 3.27109L20.5289 4.30226C23.4047 6.01543 24.8427 6.872 25.5182 8.28119" stroke="var(--stroke-0, #3663CA)" stroke-width="1.875" stroke-linecap="round"/>
</g>
</svg>
